<?xml version="1.0" encoding="utf-8"?>
<!-- Generator: Adobe Illustrator 22.1.0, SVG Export Plug-In . SVG Version: 6.00 Build 0)  -->
<svg version="1.1" id="レイヤー_1" xmlns="http://www.w3.org/2000/svg" xmlns:xlink="http://www.w3.org/1999/xlink" x="0px"
	 y="0px" width="480px" height="390.1px" viewBox="0 0 480 390.1" style="enable-background:new 0 0 480 390.1;"
	 xml:space="preserve">
<title>0611_callshare_icon</title>
<path d="M151,390.1c181.1,0,280.2-150.1,280.2-280.2c0-4.3-0.1-8.5-0.3-12.7c19.3-13.9,35.9-31.2,49.1-51c-18,8-37,13.2-56.5,15.5
	c20.6-12.3,36-31.7,43.3-54.5c-19.3,11.5-40.5,19.6-62.5,23.9C367-8.6,304.6-10.5,264.9,26.8c-25.6,24.1-36.4,59.9-28.5,94.1
	c-79.2-3.9-153-41.3-203-102.9C7.3,63,20.6,120.6,63.9,149.5c-15.6-0.5-30.9-4.7-44.6-12.3c0,0.4,0,0.8,0,1.3
	c0,46.9,33.1,87.3,79,96.5c-14.5,4-29.7,4.5-44.5,1.7c12.9,40.1,49.9,67.6,92,68.4c-34.9,27.4-78,42.2-122.3,42.1
	c-7.8,0-15.7-0.4-23.5-1.4C45,374.8,97.5,390.1,151,390.1"/>
</svg>
